<svg width="255" height="244" viewBox="0 0 255 244" fill="none" xmlns="http://www.w3.org/2000/svg">
<g clip-path="url(#clip0_112_1031)">
<path d="M219.507 18.3245L199.482 229.772C199.291 231.78 197.627 233.327 195.611 233.371C193.249 233.422 191.365 231.414 191.565 229.061L199.148 139.939L149.438 146.079L92.9753 129.125L37.3978 133.317C33.4293 133.616 30.1551 130.255 30.5583 126.296L41.3003 20.8333C41.6287 17.6089 44.3186 15.1408 47.5593 15.0902L104.683 14.1988L161.146 31.1403L210.853 25.0129L211.614 17.5485C211.817 15.557 213.472 14.0291 215.474 13.986C217.845 13.9349 219.731 15.9632 219.507 18.3245Z" fill="#0025A6"/>
<path d="M210.179 26.1005L199.469 141.164C199.192 144.136 196.896 146.52 193.937 146.909L147.528 153.005L89.026 134.006L31.1701 138.609C27.2146 138.924 23.9313 135.596 24.299 131.645L35.382 12.5886C35.6844 9.33929 38.3862 6.83964 41.6492 6.7902L100.954 5.89168L159.455 24.8767L202.984 19.1707C207.05 18.6377 210.559 22.0173 210.179 26.1005Z" fill="#0139FE"/>
<path d="M122.663 68.6821L156.895 65.0293L165.766 77.6303L124.092 82.0772L122.663 68.6821Z" fill="#D9D9D9"/>
<path d="M165.313 76.8192C164.381 68.0797 160.877 59.8131 155.247 53.0646C149.616 46.3161 142.11 41.3889 133.679 38.906C125.248 36.4232 116.27 36.4962 107.881 39.1158C99.4911 41.7354 92.0667 46.784 86.5464 53.6232C81.0261 60.4623 77.6578 68.7849 76.8675 77.5383C76.0771 86.2918 77.9002 95.083 82.1063 102.8C86.3123 110.518 92.7123 116.814 100.497 120.894C108.282 124.974 117.101 126.654 125.841 125.722L123.972 108.207C118.697 108.77 113.373 107.756 108.674 105.293C103.975 102.83 100.112 99.0292 97.5729 94.3709C95.0341 89.7126 93.9336 84.406 94.4107 79.1223C94.8877 73.8385 96.9209 68.8149 100.253 64.6867C103.585 60.5584 108.067 57.511 113.131 55.9297C118.195 54.3485 123.614 54.3044 128.703 55.8031C133.792 57.3018 138.323 60.276 141.722 64.3495C145.121 68.423 147.235 73.4129 147.798 78.6882L165.313 76.8192Z" fill="white"/>
</g>
<defs>
<clipPath id="clip0_112_1031">
<rect width="254.454" height="243.673" fill="white" transform="matrix(-1 -8.74228e-08 -8.74228e-08 1 254.453 0)"/>
</clipPath>
</defs>
</svg>
