<svg width="255" height="244" viewBox="0 0 255 244" fill="none" xmlns="http://www.w3.org/2000/svg">
<g clip-path="url(#clip0_112_1025)">
<path d="M34.9462 18.3245L54.9715 229.772C55.1617 231.78 56.8259 233.327 58.8424 233.371C61.2038 233.422 63.088 231.414 62.8878 229.061L55.3051 139.939L105.015 146.079L161.478 129.125L217.055 133.317C221.024 133.616 224.298 130.255 223.895 126.296L213.153 20.8334C212.824 17.609 210.135 15.1408 206.894 15.0902L149.77 14.1988L93.3076 31.1403L43.6001 25.0129L42.8392 17.5485C42.6362 15.557 40.9808 14.0291 38.9795 13.986C36.6081 13.9349 34.7226 15.9632 34.9462 18.3245Z" fill="#0025A6"/>
<path d="M44.274 26.1005L54.9842 141.164C55.2608 144.136 57.557 146.52 60.516 146.909L106.925 153.005L165.427 134.006L223.283 138.609C227.238 138.924 230.522 135.596 230.154 131.645L219.071 12.5886C218.769 9.33931 216.067 6.83966 212.804 6.79022L153.499 5.89169L94.998 24.8768L51.4688 19.1707C47.4029 18.6377 43.894 22.0173 44.274 26.1005Z" fill="#0139FE"/>
<path d="M131.486 68.7222L163.606 56.334L175.436 66.2096L136.334 81.2908L131.486 68.7222Z" fill="#D9D9D9"/>
<path d="M174.789 65.5436C171.626 57.3433 166.103 50.265 158.917 45.2038C151.732 40.1426 143.207 37.3259 134.42 37.1097C125.634 36.8936 116.981 39.2878 109.555 43.9895C102.129 48.6913 96.2645 55.4894 92.7024 63.5243C89.1403 71.5592 88.0409 80.4699 89.543 89.1297C91.0452 97.7894 95.0815 105.809 101.142 112.175C107.202 118.541 115.013 122.967 123.589 124.893C132.164 126.819 141.118 126.159 149.319 122.996L142.98 106.561C138.03 108.471 132.625 108.869 127.449 107.706C122.273 106.544 117.558 103.872 113.9 100.03C110.242 96.1872 107.805 91.3463 106.898 86.1191C105.992 80.8919 106.655 75.5133 108.805 70.6633C110.956 65.8133 114.496 61.7098 118.978 58.8717C123.46 56.0337 128.683 54.5885 133.987 54.7189C139.291 54.8494 144.437 56.5497 148.774 59.6047C153.111 62.6597 156.445 66.9323 158.354 71.8821L174.789 65.5436Z" fill="white"/>
</g>
<defs>
<clipPath id="clip0_112_1025">
<rect width="254.454" height="243.673" fill="white"/>
</clipPath>
</defs>
</svg>
