<svg width="24" height="24" viewBox="0 0 24 24" fill="none" xmlns="http://www.w3.org/2000/svg">
<rect width="24" height="24" rx="6" fill="#106FF4"/>
<path d="M4.7207 18.9799L5.74964 15.2435C5.11351 14.1468 4.7798 12.9048 4.78327 11.6352C4.78327 7.65661 8.03693 4.42188 12.031 4.42188C13.9707 4.42188 15.7922 5.17261 17.1583 6.5357C18.5279 7.89878 19.2822 9.71162 19.2787 11.6386C19.2787 15.6172 16.0251 18.8519 12.0275 18.8519H12.024C10.8109 18.8519 9.61857 18.5475 8.55835 17.9732L4.7207 18.9799ZM8.74258 16.6689L8.96158 16.8004C9.88623 17.347 10.9464 17.6341 12.0275 17.6376H12.031C15.3507 17.6376 18.0551 14.9495 18.0551 11.6421C18.0551 10.0403 17.4294 8.53535 16.2927 7.4006C15.156 6.26585 13.6404 5.64312 12.031 5.64312C8.7113 5.63966 6.00687 8.32777 6.00687 11.6352C6.00687 12.7665 6.3232 13.8701 6.92804 14.8249L7.07056 15.0533L6.46224 17.2639L8.74258 16.6689Z" fill="white"/>
<path d="M4.97461 18.7273L5.96878 15.1189C5.35351 14.0637 5.03023 12.8632 5.03023 11.6385C5.0337 7.79834 8.17265 4.67432 12.0311 4.67432C13.9048 4.67432 15.6602 5.40083 16.9812 6.71549C18.3021 8.03014 19.0286 9.7807 19.0286 11.642C19.0286 15.4821 15.8862 18.6062 12.0311 18.6062H12.0277C10.8562 18.6062 9.70562 18.3121 8.68364 17.7586L4.97461 18.7273Z" fill="white"/>
<path d="M4.7207 18.9799L5.74964 15.2435C5.11351 14.1468 4.7798 12.9048 4.78327 11.6352C4.78327 7.65661 8.03693 4.42188 12.031 4.42188C13.9707 4.42188 15.7922 5.17261 17.1583 6.5357C18.5279 7.89878 19.2822 9.71162 19.2787 11.6386C19.2787 15.6172 16.0251 18.8519 12.0275 18.8519H12.024C10.8109 18.8519 9.61857 18.5475 8.55835 17.9732L4.7207 18.9799ZM8.74258 16.6689L8.96158 16.8004C9.88623 17.347 10.9464 17.6341 12.0275 17.6376H12.031C15.3507 17.6376 18.0551 14.9495 18.0551 11.6421C18.0551 10.0403 17.4294 8.53535 16.2927 7.4006C15.156 6.26585 13.6404 5.64312 12.031 5.64312C8.7113 5.63966 6.00687 8.32777 6.00687 11.6352C6.00687 12.7665 6.3232 13.8701 6.92804 14.8249L7.07056 15.0533L6.46224 17.2639L8.74258 16.6689Z" fill="white"/>
<path fill-rule="evenodd" clip-rule="evenodd" d="M10.2198 8.61854C10.0842 8.31755 9.94168 8.31063 9.81306 8.30717C9.70877 8.30371 9.58711 8.30371 9.46545 8.30371C9.34378 8.30371 9.14912 8.34869 8.98226 8.52859C8.81541 8.70849 8.34961 9.1444 8.34961 10.0335C8.34961 10.9192 8.99964 11.7772 9.09002 11.8982C9.1804 12.0193 10.3449 13.8979 12.1838 14.621C13.7133 15.2229 14.0261 15.1018 14.3564 15.0707C14.6866 15.0396 15.427 14.6348 15.58 14.2127C15.7294 13.7907 15.7294 13.4309 15.6842 13.3547C15.639 13.2786 15.5174 13.2337 15.3366 13.1437C15.1559 13.0538 14.266 12.6178 14.0991 12.5556C13.9323 12.4968 13.8106 12.4656 13.6924 12.6455C13.5708 12.8254 13.2231 13.2302 13.1189 13.3513C13.0146 13.4724 12.9068 13.4862 12.7261 13.3963C12.5453 13.3063 11.9613 13.116 11.2696 12.5002C10.7308 12.0228 10.3658 11.4312 10.2615 11.2513C10.1572 11.0714 10.2511 10.9745 10.3414 10.8846C10.4214 10.805 10.5222 10.6735 10.6126 10.5698C10.7029 10.466 10.7342 10.3899 10.7933 10.2688C10.8524 10.1477 10.8246 10.0439 10.7794 9.95394C10.7342 9.86745 10.3797 8.97488 10.2198 8.61854Z" fill="#106FF4"/>
</svg>
