<svg width="82" height="82" viewBox="0 0 82 82" fill="none" xmlns="http://www.w3.org/2000/svg">
<rect width="82" height="82" fill="#F1F4FF"/>
<rect x="8" y="66" width="66" height="9" fill="#7001FE"/>
<rect x="17" y="54" width="48" height="8" fill="#7001FE"/>
<rect x="26" y="41" width="30" height="9" fill="#7001FE"/>
<path d="M53.7507 16.9759V18.1364C53.7492 20.8564 52.8684 23.5031 51.2398 25.6816C49.6111 27.8602 47.3219 29.4539 44.7135 30.2251C42.1051 30.9964 39.3173 30.9038 36.7658 29.9611C34.2143 29.0185 32.0359 27.2763 30.5554 24.9945C29.075 22.7126 28.3718 20.0133 28.5508 17.2992C28.7297 14.5851 29.7813 12.0015 31.5485 9.9338C33.3158 7.86611 35.7041 6.42508 38.3573 5.82563C41.0104 5.22619 43.7863 5.50044 46.2708 6.6075" stroke="#45D3C8" stroke-width="3.36364" stroke-linecap="round" stroke-linejoin="round"/>
<path d="M53.7503 8.04547L41.1366 20.6717L37.3525 16.8876" stroke="#45D3C8" stroke-width="3.36364" stroke-linecap="round" stroke-linejoin="round"/>
</svg>
