<svg width="25" height="19" viewBox="0 0 25 19" fill="none" xmlns="http://www.w3.org/2000/svg">
<path d="M23.9583 10.0695H1.04167C0.466667 10.0695 0 9.60286 0 9.02786C0 8.45286 0.466667 7.9862 1.04167 7.9862H23.9583C24.5333 7.9862 25 8.45286 25 9.02786C25 9.60286 24.5333 10.0695 23.9583 10.0695ZM23.9583 2.08333H1.04167C0.466667 2.08333 0 1.61667 0 1.04167C0 0.466667 0.466667 0 1.04167 0H23.9583C24.5333 0 25 0.466667 25 1.04167C25 1.61667 24.5333 2.08333 23.9583 2.08333ZM23.9583 18.0555H1.04167C0.466667 18.0555 0 17.5888 0 17.0138C0 16.4388 0.466667 15.9721 1.04167 15.9721H23.9583C24.5333 15.9721 25 16.4388 25 17.0138C25 17.5888 24.5333 18.0555 23.9583 18.0555Z" fill="#106FF4"/>
</svg>
