<svg width="82" height="82" viewBox="0 0 82 82" fill="none" xmlns="http://www.w3.org/2000/svg">
<rect width="82" height="82" fill="#F1F4FF"/>
<path d="M29 53.7576V60.7071C29 62.9162 30.7909 64.7071 33 64.7071H62.8213C64.1796 64.7071 65.445 65.3963 66.1818 66.5374L71 74V67.7071C71 66.0502 72.3431 64.7071 74 64.7071C75.6569 64.7071 77 63.3639 77 61.7071V38C77 35.7909 75.2091 34 73 34H70V49.7576C70 51.9667 68.2091 53.7576 66 53.7576H29Z" fill="#7001FE"/>
<path fill-rule="evenodd" clip-rule="evenodd" d="M11 11C8.79086 11 7 12.7909 7 15V45.7588C7 47.7609 8.62297 49.3838 10.625 49.3838C12.627 49.3838 14.25 51.0068 14.25 53.0088V61L20.3253 51.266C21.056 50.0952 22.3386 49.3838 23.7186 49.3838H36H61C63.2091 49.3838 65 47.593 65 45.3838V15C65 12.7909 63.2091 11 61 11H11ZM58 18H13V23H58V18ZM13 29H58V32H13V29ZM34 38H13V40H34V38Z" fill="#45D3C8"/>
</svg>
