<svg width="82" height="82" viewBox="0 0 82 82" fill="none" xmlns="http://www.w3.org/2000/svg">
<rect width="82" height="82" fill="#F1F4FF"/>
<path d="M41.2371 13L75 31.8561L61.0025 69H25.1577L41.2371 13ZM25.1577 69L7 32.2315L18.5182 35.4226" fill="#7001FE"/>
<path d="M25.1819 69L16 23L27 27.0504" fill="#7001FE"/>
<path d="M38.6166 21.6031L27.2761 16L25 69M43.966 24.7869L69 36.4058L43.966 24.7869ZM41.8804 31.8565L66.9441 41.8538L41.8804 31.8565ZM39.7931 38.926L64.89 47.3019L39.7931 38.926ZM37.7075 45.9956L62.8359 52.7499L37.7075 45.9956Z" fill="#7001FE"/>
<path d="M44.2 25L69 36.6343M42.1339 32.0789L66.9634 42.0895M40.0661 39.1578L64.9284 47.5448M38 46.2367L62.8935 53" stroke="white" stroke-width="3" stroke-linecap="round" stroke-linejoin="round"/>
</svg>
