<svg width="82" height="82" viewBox="0 0 82 82" fill="none" xmlns="http://www.w3.org/2000/svg">
<rect width="82" height="82" fill="#F1F4FF"/>
<g clip-path="url(#clip0_112_995)">
<path d="M55.603 36.5167C55.9928 37.0229 56.1861 37.653 56.1474 38.2907C56.1086 38.9284 55.8404 39.5305 55.3922 39.9858L37.9122 57.4658L27.8688 47.4225C27.3605 46.9142 27.0749 46.2247 27.0749 45.5058C27.0749 44.7869 27.3605 44.0975 27.8688 43.5892C28.3772 43.0808 29.0666 42.7953 29.7855 42.7953C30.5044 42.7953 31.1938 43.0808 31.7022 43.5892L37.9505 49.8375L51.3672 36.4208H48.6072C47.3788 36.4239 46.1709 36.1061 45.103 35.4988C44.0352 34.8916 43.1445 34.016 42.519 32.9588C41.8936 31.9015 41.5551 30.6992 41.5371 29.4709C41.5191 28.2427 41.8222 27.031 42.4163 25.9558V25.7833H27.5622V22.3333C27.5622 21.825 27.7641 21.3375 28.1236 20.978C28.483 20.6186 28.9705 20.4167 29.4788 20.4167H36.0722V19.1133C36.0722 17.9365 36.5397 16.808 37.3718 15.9758C38.2039 15.1437 39.3325 14.6762 40.5093 14.6762C41.686 14.6762 42.8146 15.1437 43.6467 15.9758C44.4789 16.808 44.9463 17.9365 44.9463 19.1133V20.4167H45.7513L48.1663 16.1233C47.5547 14.5409 46.4696 13.1857 45.0591 12.2429C43.6486 11.3 41.9815 10.8154 40.2854 10.8553C38.5893 10.8951 36.9468 11.4574 35.5822 12.4654C34.2175 13.4734 33.1972 14.878 32.6605 16.4875H19.4163C18.947 16.4196 18.4685 16.452 18.0126 16.5826C17.5566 16.7132 17.1336 16.939 16.7713 17.2451C16.4091 17.5512 16.1159 17.9307 15.911 18.3585C15.7062 18.7862 15.5944 19.2525 15.583 19.7267V68.8317C15.5855 69.2596 15.6723 69.6828 15.8384 70.0771C16.0044 70.4715 16.2465 70.8293 16.5509 71.1301C16.8552 71.4308 17.2158 71.6687 17.6121 71.8302C18.0084 71.9916 18.4326 72.0734 18.8605 72.0708H62.1388C62.5667 72.0734 62.9909 71.9916 63.3872 71.8302C63.7835 71.6687 64.1441 71.4308 64.4485 71.1301C64.7528 70.8293 64.9949 70.4715 65.161 70.0771C65.3271 69.6828 65.4138 69.2596 65.4163 68.8317V36.5167H55.603Z" fill="#7001FE"/>
<path d="M57.4624 9.18499L46.4991 28.0833C46.244 28.4577 46.0976 28.8954 46.076 29.3479C46.0545 29.8004 46.1586 30.25 46.3769 30.647C46.5952 31.0439 46.9192 31.3726 47.3129 31.5967C47.7066 31.8209 48.1546 31.9316 48.6074 31.9167H70.5532C71.006 31.9316 71.4541 31.8209 71.8478 31.5967C72.2415 31.3726 72.5654 31.0439 72.7837 30.647C73.002 30.25 73.1062 29.8004 73.0846 29.3479C73.0631 28.8954 72.9166 28.4577 72.6616 28.0833L61.6982 9.18499C61.482 8.81518 61.1728 8.50843 60.8012 8.29525C60.4296 8.08208 60.0087 7.96991 59.5803 7.96991C59.1519 7.96991 58.731 8.08208 58.3595 8.29525C57.9879 8.50843 57.6786 8.81518 57.4624 9.18499Z" fill="#45D3C8"/>
</g>
<defs>
<clipPath id="clip0_112_995">
<rect width="69" height="69" fill="white" transform="translate(6 7)"/>
</clipPath>
</defs>
</svg>
