<svg width="205" height="480" viewBox="0 0 205 480" fill="none" xmlns="http://www.w3.org/2000/svg">
<rect width="294.457" height="53.8034" rx="8" transform="matrix(-1 0 0 1 492 129.764)" fill="url(#paint0_linear_456_91)"/>
<rect width="330" height="61" rx="8" transform="matrix(-1 0 0 1 492 191.567)" fill="url(#paint1_linear_456_91)"/>
<rect width="384" height="88" rx="8" transform="matrix(-1 0 0 1 492 260.567)" fill="url(#paint2_linear_456_91)"/>
<rect width="442" height="88" rx="8" transform="matrix(-1 0 0 1 492 356.567)" fill="url(#paint3_linear_456_91)"/>
<rect x="3" y="452.567" width="489" height="108" rx="8" fill="url(#paint4_linear_456_91)"/>
<defs>
<linearGradient id="paint0_linear_456_91" x1="147.228" y1="0" x2="147.228" y2="53.8034" gradientUnits="userSpaceOnUse">
<stop stop-color="#D3DDFF"/>
<stop offset="1" stop-color="white" stop-opacity="0"/>
</linearGradient>
<linearGradient id="paint1_linear_456_91" x1="165" y1="0" x2="165" y2="61" gradientUnits="userSpaceOnUse">
<stop stop-color="#D3DDFF"/>
<stop offset="1" stop-color="white" stop-opacity="0"/>
</linearGradient>
<linearGradient id="paint2_linear_456_91" x1="192" y1="0" x2="192" y2="88" gradientUnits="userSpaceOnUse">
<stop stop-color="#D3DDFF"/>
<stop offset="1" stop-color="white" stop-opacity="0"/>
</linearGradient>
<linearGradient id="paint3_linear_456_91" x1="221" y1="0" x2="221" y2="88" gradientUnits="userSpaceOnUse">
<stop stop-color="#DCEAFF"/>
<stop offset="1" stop-color="white" stop-opacity="0"/>
</linearGradient>
<linearGradient id="paint4_linear_456_91" x1="247.5" y1="452.567" x2="247.5" y2="560.567" gradientUnits="userSpaceOnUse">
<stop stop-color="#B6CAFF"/>
<stop offset="1" stop-color="white" stop-opacity="0"/>
</linearGradient>
</defs>
</svg>
