<svg width="362" height="480" viewBox="0 0 362 480" fill="none" xmlns="http://www.w3.org/2000/svg">
<rect x="-130" y="2" width="170.62" height="19.2155" rx="8" fill="url(#paint0_linear_456_82)"/>
<rect x="-130" y="29.2153" width="198.139" height="42.2741" rx="8" fill="url(#paint1_linear_456_82)"/>
<rect x="-130" y="79.4897" width="242.17" height="42.2741" rx="8" fill="url(#paint2_linear_456_82)"/>
<rect x="-130" y="129.764" width="294.457" height="53.8034" rx="8" fill="url(#paint3_linear_456_82)"/>
<rect x="-130" y="191.567" width="330" height="61" rx="8" fill="url(#paint4_linear_456_82)"/>
<rect x="-130" y="260.567" width="384" height="88" rx="8" fill="url(#paint5_linear_456_82)"/>
<rect x="-130" y="356.567" width="442" height="88" rx="8" fill="url(#paint6_linear_456_82)"/>
<rect width="489" height="108" rx="8" transform="matrix(-1 0 0 1 359 452.567)" fill="url(#paint7_linear_456_82)"/>
<defs>
<linearGradient id="paint0_linear_456_82" x1="-44.6902" y1="2" x2="-44.6902" y2="21.2155" gradientUnits="userSpaceOnUse">
<stop stop-color="#D3DDFF"/>
<stop offset="1" stop-color="white" stop-opacity="0"/>
</linearGradient>
<linearGradient id="paint1_linear_456_82" x1="-30.9305" y1="29.2153" x2="-30.9305" y2="71.4894" gradientUnits="userSpaceOnUse">
<stop stop-color="#D3DDFF"/>
<stop offset="1" stop-color="white" stop-opacity="0"/>
</linearGradient>
<linearGradient id="paint2_linear_456_82" x1="-8.91505" y1="79.4897" x2="-8.91505" y2="121.764" gradientUnits="userSpaceOnUse">
<stop stop-color="#D3DDFF"/>
<stop offset="1" stop-color="white" stop-opacity="0"/>
</linearGradient>
<linearGradient id="paint3_linear_456_82" x1="17.2283" y1="129.764" x2="17.2283" y2="183.567" gradientUnits="userSpaceOnUse">
<stop stop-color="#D3DDFF"/>
<stop offset="1" stop-color="white" stop-opacity="0"/>
</linearGradient>
<linearGradient id="paint4_linear_456_82" x1="35" y1="191.567" x2="35" y2="252.567" gradientUnits="userSpaceOnUse">
<stop stop-color="#D3DDFF"/>
<stop offset="1" stop-color="white" stop-opacity="0"/>
</linearGradient>
<linearGradient id="paint5_linear_456_82" x1="62" y1="260.567" x2="62" y2="348.567" gradientUnits="userSpaceOnUse">
<stop stop-color="#D3DDFF"/>
<stop offset="1" stop-color="white" stop-opacity="0"/>
</linearGradient>
<linearGradient id="paint6_linear_456_82" x1="91" y1="356.567" x2="91" y2="444.567" gradientUnits="userSpaceOnUse">
<stop stop-color="#DCEAFF"/>
<stop offset="1" stop-color="white" stop-opacity="0"/>
</linearGradient>
<linearGradient id="paint7_linear_456_82" x1="244.5" y1="0" x2="244.5" y2="108" gradientUnits="userSpaceOnUse">
<stop stop-color="#B6CAFF"/>
<stop offset="1" stop-color="white" stop-opacity="0"/>
</linearGradient>
</defs>
</svg>
