<svg width="295" height="609" viewBox="0 0 295 609" fill="none" xmlns="http://www.w3.org/2000/svg">
<rect width="135.238" height="26.3036" rx="8" transform="matrix(-1 0 0 1 203.294 131.518)" fill="url(#paint0_linear_112_1094)"/>
<rect width="129.914" height="26.3036" rx="8" transform="matrix(-1 0 0 1 240.564 96.0645)" fill="url(#paint1_linear_112_1094)"/>
<rect width="126.719" height="18.2981" rx="8" transform="matrix(-1 0 0 1 267.186 72.0488)" fill="url(#paint2_linear_112_1094)"/>
<rect width="113.941" height="16.0109" rx="8" transform="matrix(-1 0 0 1 306.586 51.4639)" fill="url(#paint3_linear_112_1094)"/>
<rect width="93.7082" height="12.58" rx="6.28998" transform="matrix(-1 0 0 1 342.791 34.3086)" fill="url(#paint4_linear_112_1094)"/>
<rect width="76.6704" height="12.58" rx="6.28998" transform="matrix(-1 0 0 1 361.959 13.7236)" fill="url(#paint5_linear_112_1094)"/>
<rect x="32.915" y="166.971" width="129.914" height="32.0217" rx="8" fill="url(#paint6_linear_112_1094)"/>
<rect x="3.09863" y="208.141" width="137.368" height="38.8835" rx="8" fill="url(#paint7_linear_112_1094)"/>
<rect x="222.652" y="413.842" width="266.214" height="30.0742" rx="8" fill="url(#paint8_linear_112_1094)"/>
<rect x="166.989" y="369.887" width="266.214" height="32.3876" rx="8" fill="url(#paint9_linear_112_1094)"/>
<rect x="133.662" y="342.057" width="257.889" height="20.7905" rx="8" fill="url(#paint10_linear_112_1094)"/>
<rect x="102.592" y="313.842" width="219.05" height="20.7905" rx="8" fill="url(#paint11_linear_112_1094)"/>
<rect x="77.7344" y="296.021" width="166.23" height="13.3653" rx="6.68265" fill="url(#paint12_linear_112_1094)"/>
<rect x="43.5635" y="270.411" width="176.669" height="16.1938" rx="8" fill="url(#paint13_linear_112_1094)"/>
<rect y="254.218" width="159.729" height="9.2536" rx="4.6268" fill="url(#paint14_linear_112_1094)"/>
<rect width="290.416" height="39.3278" rx="8" transform="matrix(-1 0 0 1 534.849 453.17)" fill="url(#paint15_linear_112_1094)"/>
<rect width="290.416" height="39.3278" rx="8" transform="matrix(-1 0 0 1 567.767 510.73)" fill="url(#paint16_linear_112_1094)"/>
<defs>
<linearGradient id="paint0_linear_112_1094" x1="67.619" y1="0" x2="67.619" y2="26.3036" gradientUnits="userSpaceOnUse">
<stop stop-color="#E2E9FF"/>
<stop offset="1" stop-color="#F1F4FF" stop-opacity="0"/>
</linearGradient>
<linearGradient id="paint1_linear_112_1094" x1="64.9568" y1="0" x2="64.9568" y2="26.3036" gradientUnits="userSpaceOnUse">
<stop stop-color="#E2E9FF"/>
<stop offset="1" stop-color="#F1F4FF" stop-opacity="0"/>
</linearGradient>
<linearGradient id="paint2_linear_112_1094" x1="63.3595" y1="0" x2="63.3595" y2="18.2981" gradientUnits="userSpaceOnUse">
<stop stop-color="#E2E9FF"/>
<stop offset="1" stop-color="#F1F4FF" stop-opacity="0"/>
</linearGradient>
<linearGradient id="paint3_linear_112_1094" x1="56.9703" y1="0" x2="56.9703" y2="16.0109" gradientUnits="userSpaceOnUse">
<stop stop-color="#E2E9FF"/>
<stop offset="1" stop-color="#F1F4FF" stop-opacity="0"/>
</linearGradient>
<linearGradient id="paint4_linear_112_1094" x1="46.8541" y1="0" x2="46.8541" y2="12.58" gradientUnits="userSpaceOnUse">
<stop stop-color="#E2E9FF"/>
<stop offset="1" stop-color="#F1F4FF" stop-opacity="0"/>
</linearGradient>
<linearGradient id="paint5_linear_112_1094" x1="38.3352" y1="0" x2="38.3352" y2="12.58" gradientUnits="userSpaceOnUse">
<stop stop-color="#E2E9FF"/>
<stop offset="1" stop-color="#F1F4FF" stop-opacity="0"/>
</linearGradient>
<linearGradient id="paint6_linear_112_1094" x1="97.8719" y1="166.971" x2="97.8719" y2="198.992" gradientUnits="userSpaceOnUse">
<stop stop-color="#E2E9FF"/>
<stop offset="1" stop-color="#F1F4FF" stop-opacity="0"/>
</linearGradient>
<linearGradient id="paint7_linear_112_1094" x1="71.7825" y1="208.141" x2="71.7825" y2="247.024" gradientUnits="userSpaceOnUse">
<stop stop-color="#E2E9FF"/>
<stop offset="1" stop-color="#F1F4FF" stop-opacity="0"/>
</linearGradient>
<linearGradient id="paint8_linear_112_1094" x1="355.759" y1="413.842" x2="355.759" y2="443.916" gradientUnits="userSpaceOnUse">
<stop stop-color="#BFE0FF"/>
<stop offset="1" stop-color="white" stop-opacity="0"/>
</linearGradient>
<linearGradient id="paint9_linear_112_1094" x1="300.096" y1="369.887" x2="300.096" y2="402.274" gradientUnits="userSpaceOnUse">
<stop stop-color="#CCE6F5"/>
<stop offset="1" stop-color="white" stop-opacity="0"/>
</linearGradient>
<linearGradient id="paint10_linear_112_1094" x1="262.607" y1="342.057" x2="262.607" y2="362.847" gradientUnits="userSpaceOnUse">
<stop stop-color="#CCE6F5"/>
<stop offset="1" stop-color="white" stop-opacity="0"/>
</linearGradient>
<linearGradient id="paint11_linear_112_1094" x1="212.117" y1="313.842" x2="212.117" y2="334.632" gradientUnits="userSpaceOnUse">
<stop stop-color="#CCE6F5"/>
<stop offset="1" stop-color="white" stop-opacity="0"/>
</linearGradient>
<linearGradient id="paint12_linear_112_1094" x1="160.849" y1="296.021" x2="160.849" y2="309.386" gradientUnits="userSpaceOnUse">
<stop stop-color="#CCE6F5"/>
<stop offset="1" stop-color="white" stop-opacity="0"/>
</linearGradient>
<linearGradient id="paint13_linear_112_1094" x1="131.898" y1="270.411" x2="131.898" y2="286.605" gradientUnits="userSpaceOnUse">
<stop stop-color="#CCE6F5"/>
<stop offset="1" stop-color="white" stop-opacity="0"/>
</linearGradient>
<linearGradient id="paint14_linear_112_1094" x1="79.8643" y1="254.218" x2="79.8643" y2="263.471" gradientUnits="userSpaceOnUse">
<stop stop-color="#CCDCF5"/>
<stop offset="1" stop-color="white" stop-opacity="0"/>
</linearGradient>
<linearGradient id="paint15_linear_112_1094" x1="145.208" y1="0" x2="145.208" y2="39.3278" gradientUnits="userSpaceOnUse">
<stop stop-color="#BFE0FF"/>
<stop offset="1" stop-color="white" stop-opacity="0"/>
</linearGradient>
<linearGradient id="paint16_linear_112_1094" x1="145.208" y1="0" x2="145.208" y2="39.3278" gradientUnits="userSpaceOnUse">
<stop stop-color="#BFE0FF"/>
<stop offset="1" stop-color="white" stop-opacity="0"/>
</linearGradient>
</defs>
</svg>
