<svg width="310" height="609" viewBox="0 0 310 609" fill="none" xmlns="http://www.w3.org/2000/svg">
<rect x="106.536" y="131.518" width="135.238" height="26.3036" rx="8" fill="url(#paint0_linear_112_1114)"/>
<rect x="69.2656" y="96.0645" width="129.914" height="26.3036" rx="8" fill="url(#paint1_linear_112_1114)"/>
<rect x="42.6445" y="72.0488" width="126.719" height="18.2981" rx="8" fill="url(#paint2_linear_112_1114)"/>
<rect x="3.24414" y="51.4639" width="113.941" height="16.0109" rx="8" fill="url(#paint3_linear_112_1114)"/>
<rect x="-32.9609" y="34.3086" width="93.7082" height="12.58" rx="6.28998" fill="url(#paint4_linear_112_1114)"/>
<rect x="-52.1289" y="13.7236" width="76.6704" height="12.58" rx="6.28998" fill="url(#paint5_linear_112_1114)"/>
<rect width="129.914" height="32.0217" rx="8" transform="matrix(-1 0 0 1 276.915 166.971)" fill="url(#paint6_linear_112_1114)"/>
<rect width="137.368" height="38.8835" rx="8" transform="matrix(-1 0 0 1 306.731 208.141)" fill="url(#paint7_linear_112_1114)"/>
<rect width="266.214" height="30.0742" rx="8" transform="matrix(-1 0 0 1 87.1777 413.842)" fill="url(#paint8_linear_112_1114)"/>
<rect width="266.214" height="32.3876" rx="8" transform="matrix(-1 0 0 1 142.841 369.887)" fill="url(#paint9_linear_112_1114)"/>
<rect width="257.889" height="20.7905" rx="8" transform="matrix(-1 0 0 1 176.168 342.057)" fill="url(#paint10_linear_112_1114)"/>
<rect width="219.05" height="20.7905" rx="8" transform="matrix(-1 0 0 1 207.238 313.842)" fill="url(#paint11_linear_112_1114)"/>
<rect width="166.23" height="13.3653" rx="6.68265" transform="matrix(-1 0 0 1 232.096 296.021)" fill="url(#paint12_linear_112_1114)"/>
<rect width="176.669" height="16.1938" rx="8" transform="matrix(-1 0 0 1 266.267 270.411)" fill="url(#paint13_linear_112_1114)"/>
<rect width="159.729" height="9.2536" rx="4.6268" transform="matrix(-1 0 0 1 309.83 254.218)" fill="url(#paint14_linear_112_1114)"/>
<rect x="-225.019" y="453.17" width="290.416" height="39.3278" rx="8" fill="url(#paint15_linear_112_1114)"/>
<rect x="-257.937" y="510.73" width="290.416" height="39.3278" rx="8" fill="url(#paint16_linear_112_1114)"/>
<rect x="-287" y="568.855" width="290.416" height="39.3278" rx="8" fill="url(#paint17_linear_112_1114)"/>
<defs>
<linearGradient id="paint0_linear_112_1114" x1="174.155" y1="131.518" x2="174.155" y2="157.821" gradientUnits="userSpaceOnUse">
<stop stop-color="#E2E9FF"/>
<stop offset="1" stop-color="#F1F4FF" stop-opacity="0"/>
</linearGradient>
<linearGradient id="paint1_linear_112_1114" x1="134.222" y1="96.0645" x2="134.222" y2="122.368" gradientUnits="userSpaceOnUse">
<stop stop-color="#E2E9FF"/>
<stop offset="1" stop-color="#F1F4FF" stop-opacity="0"/>
</linearGradient>
<linearGradient id="paint2_linear_112_1114" x1="106.004" y1="72.0488" x2="106.004" y2="90.347" gradientUnits="userSpaceOnUse">
<stop stop-color="#E2E9FF"/>
<stop offset="1" stop-color="#F1F4FF" stop-opacity="0"/>
</linearGradient>
<linearGradient id="paint3_linear_112_1114" x1="60.2145" y1="51.4639" x2="60.2145" y2="67.4747" gradientUnits="userSpaceOnUse">
<stop stop-color="#E2E9FF"/>
<stop offset="1" stop-color="#F1F4FF" stop-opacity="0"/>
</linearGradient>
<linearGradient id="paint4_linear_112_1114" x1="13.8932" y1="34.3086" x2="13.8932" y2="46.8886" gradientUnits="userSpaceOnUse">
<stop stop-color="#E2E9FF"/>
<stop offset="1" stop-color="#F1F4FF" stop-opacity="0"/>
</linearGradient>
<linearGradient id="paint5_linear_112_1114" x1="-13.7937" y1="13.7236" x2="-13.7937" y2="26.3036" gradientUnits="userSpaceOnUse">
<stop stop-color="#E2E9FF"/>
<stop offset="1" stop-color="#F1F4FF" stop-opacity="0"/>
</linearGradient>
<linearGradient id="paint6_linear_112_1114" x1="64.9568" y1="0" x2="64.9568" y2="32.0217" gradientUnits="userSpaceOnUse">
<stop stop-color="#E2E9FF"/>
<stop offset="1" stop-color="#F1F4FF" stop-opacity="0"/>
</linearGradient>
<linearGradient id="paint7_linear_112_1114" x1="68.6839" y1="0" x2="68.6839" y2="38.8835" gradientUnits="userSpaceOnUse">
<stop stop-color="#E2E9FF"/>
<stop offset="1" stop-color="#F1F4FF" stop-opacity="0"/>
</linearGradient>
<linearGradient id="paint8_linear_112_1114" x1="133.107" y1="0" x2="133.107" y2="30.0742" gradientUnits="userSpaceOnUse">
<stop stop-color="#BFE0FF"/>
<stop offset="1" stop-color="white" stop-opacity="0"/>
</linearGradient>
<linearGradient id="paint9_linear_112_1114" x1="133.107" y1="0" x2="133.107" y2="32.3876" gradientUnits="userSpaceOnUse">
<stop stop-color="#CCE6F5"/>
<stop offset="1" stop-color="white" stop-opacity="0"/>
</linearGradient>
<linearGradient id="paint10_linear_112_1114" x1="128.944" y1="0" x2="128.944" y2="20.7905" gradientUnits="userSpaceOnUse">
<stop stop-color="#CCE6F5"/>
<stop offset="1" stop-color="white" stop-opacity="0"/>
</linearGradient>
<linearGradient id="paint11_linear_112_1114" x1="109.525" y1="0" x2="109.525" y2="20.7905" gradientUnits="userSpaceOnUse">
<stop stop-color="#CCE6F5"/>
<stop offset="1" stop-color="white" stop-opacity="0"/>
</linearGradient>
<linearGradient id="paint12_linear_112_1114" x1="83.1148" y1="0" x2="83.1148" y2="13.3653" gradientUnits="userSpaceOnUse">
<stop stop-color="#CCE6F5"/>
<stop offset="1" stop-color="white" stop-opacity="0"/>
</linearGradient>
<linearGradient id="paint13_linear_112_1114" x1="88.3347" y1="0" x2="88.3347" y2="16.1938" gradientUnits="userSpaceOnUse">
<stop stop-color="#CCE6F5"/>
<stop offset="1" stop-color="white" stop-opacity="0"/>
</linearGradient>
<linearGradient id="paint14_linear_112_1114" x1="79.8643" y1="0" x2="79.8643" y2="9.2536" gradientUnits="userSpaceOnUse">
<stop stop-color="#CCDCF5"/>
<stop offset="1" stop-color="white" stop-opacity="0"/>
</linearGradient>
<linearGradient id="paint15_linear_112_1114" x1="-79.8107" y1="453.17" x2="-79.8107" y2="492.498" gradientUnits="userSpaceOnUse">
<stop stop-color="#BFE0FF"/>
<stop offset="1" stop-color="white" stop-opacity="0"/>
</linearGradient>
<linearGradient id="paint16_linear_112_1114" x1="-112.729" y1="510.73" x2="-112.729" y2="550.058" gradientUnits="userSpaceOnUse">
<stop stop-color="#BFE0FF"/>
<stop offset="1" stop-color="white" stop-opacity="0"/>
</linearGradient>
<linearGradient id="paint17_linear_112_1114" x1="-141.792" y1="568.855" x2="-141.792" y2="608.183" gradientUnits="userSpaceOnUse">
<stop stop-color="#BFE0FF"/>
<stop offset="1" stop-color="white" stop-opacity="0"/>
</linearGradient>
</defs>
</svg>
